<?xml version="1.0" encoding="UTF-8"?><svg xmlns="http://www.w3.org/2000/svg" xmlns:xlink="http://www.w3.org/1999/xlink" height="323pt" style="width:1159px;height:323px;" version="1.1" viewBox="0 0 1159 323" width="1159pt">
    <defs>
        <filter height="300%" id="f1" width="300%" x="-1" y="-1">
            <feGaussianBlur result="blurOut" stdDeviation="2.0"/>
            <feColorMatrix in="blurOut" result="blurOut2" type="matrix" values="0 0 0 0 0 0 0 0 0 0 0 0 0 0 0 0 0 0 .4 0"/>
            <feOffset dx="4.0" dy="4.0" in="blurOut2" result="blurOut3"/>
            <feBlend in="SourceGraphic" in2="blurOut3" mode="normal"/>
        </filter>
    </defs>
    <g>
        <polygon fill="#FFFFFF" filter="url(#f1)" points="283,16,503,16,510,39.6094,1152,39.6094,1152,316,283,316,283,16" style="stroke: #000000; stroke-width: 2.0;"/>
        <line style="stroke: #000000; stroke-width: 2.0;" x1="283" x2="510" y1="39.6094" y2="39.6094"/>
        <text fill="#000000" font-family="sans-serif" font-size="14" font-weight="bold" lengthAdjust="spacingAndGlyphs" textLength="214" x="286" y="33.5332">de.mash1t.networking.packets</text>
        <polygon fill="#FFFFFF" filter="url(#f1)" points="14,16,240,16,247,39.6094,269,39.6094,269,208,14,208,14,16" style="stroke: #000000; stroke-width: 2.0;"/>
        <line style="stroke: #000000; stroke-width: 2.0;" x1="14" x2="247" y1="39.6094" y2="39.6094"/>
        <text fill="#000000" font-family="sans-serif" font-size="14" font-weight="bold" lengthAdjust="spacingAndGlyphs" textLength="220" x="17" y="33.5332">de.mash1t.networking.methods</text>
        <rect fill="#FEFECE" filter="url(#f1)" height="48" style="stroke: #A80036; stroke-width: 1.5;" width="119" x="708.5" y="152"/>
        <ellipse cx="723.5" cy="168" fill="#A9DCDF" rx="11" ry="11" style="stroke: #A80036; stroke-width: 1.0;"/>
        <path d="M725.6875,169.7656 L721.5469,169.7656 L721.125,170.7969 L721.5469,170.7969 Q722.1563,170.7969 722.4219,171.0313 Q722.6875,171.2656 722.6875,171.6563 Q722.6875,172.0313 722.4219,172.2656 Q722.1563,172.5 721.5469,172.5 L719.25,172.5 Q718.6406,172.5 718.3828,172.2656 Q718.125,172.0313 718.125,171.6406 Q718.125,171.2656 718.3984,171.0234 Q718.6719,170.7813 719.2969,170.7969 L721.9688,164.1406 L720.8594,164.1406 Q720.25,164.1406 719.9844,163.9063 Q719.7188,163.6719 719.7188,163.2813 Q719.7188,162.9063 719.9844,162.6719 Q720.25,162.4375 720.8594,162.4375 L724.5313,162.4375 L727.9219,170.7969 Q728.5156,170.7969 728.7031,170.9375 Q729.0938,171.2031 729.0938,171.6563 Q729.0938,172.0313 728.8359,172.2656 Q728.5781,172.5 727.9688,172.5 L725.6719,172.5 Q725.0625,172.5 724.7969,172.2656 Q724.5313,172.0313 724.5313,171.6406 Q724.5313,171.2656 724.7969,171.0313 Q725.0625,170.7969 725.6719,170.7969 L726.0938,170.7969 L725.6875,169.7656 Z M724.9688,168.0625 L723.6094,164.6875 L722.2344,168.0625 L724.9688,168.0625 Z "/>
        <text fill="#000000" font-family="sans-serif" font-size="12" font-style="italic" lengthAdjust="spacingAndGlyphs" textLength="87" x="737.5" y="172.9102">MessagePacket</text>
        <line style="stroke: #A80036; stroke-width: 1.5;" x1="709.5" x2="826.5" y1="184" y2="184"/>
        <line style="stroke: #A80036; stroke-width: 1.5;" x1="709.5" x2="826.5" y1="192" y2="192"/>
        <rect fill="#FEFECE" filter="url(#f1)" height="48" style="stroke: #A80036; stroke-width: 1.5;" width="70" x="525" y="260"/>
        <ellipse cx="540" cy="276" fill="#A9DCDF" rx="11" ry="11" style="stroke: #A80036; stroke-width: 1.0;"/>
        <path d="M542.1875,277.7656 L538.0469,277.7656 L537.625,278.7969 L538.0469,278.7969 Q538.6563,278.7969 538.9219,279.0313 Q539.1875,279.2656 539.1875,279.6563 Q539.1875,280.0313 538.9219,280.2656 Q538.6563,280.5 538.0469,280.5 L535.75,280.5 Q535.1406,280.5 534.8828,280.2656 Q534.625,280.0313 534.625,279.6406 Q534.625,279.2656 534.8984,279.0234 Q535.1719,278.7813 535.7969,278.7969 L538.4688,272.1406 L537.3594,272.1406 Q536.75,272.1406 536.4844,271.9063 Q536.2188,271.6719 536.2188,271.2813 Q536.2188,270.9063 536.4844,270.6719 Q536.75,270.4375 537.3594,270.4375 L541.0313,270.4375 L544.4219,278.7969 Q545.0156,278.7969 545.2031,278.9375 Q545.5938,279.2031 545.5938,279.6563 Q545.5938,280.0313 545.3359,280.2656 Q545.0781,280.5 544.4688,280.5 L542.1719,280.5 Q541.5625,280.5 541.2969,280.2656 Q541.0313,280.0313 541.0313,279.6406 Q541.0313,279.2656 541.2969,279.0313 Q541.5625,278.7969 542.1719,278.7969 L542.5938,278.7969 L542.1875,277.7656 Z M541.4688,276.0625 L540.1094,272.6875 L538.7344,276.0625 L541.4688,276.0625 Z "/>
        <text fill="#000000" font-family="sans-serif" font-size="12" font-style="italic" lengthAdjust="spacingAndGlyphs" textLength="38" x="554" y="280.9102">Packet</text>
        <line style="stroke: #A80036; stroke-width: 1.5;" x1="526" x2="594" y1="292" y2="292"/>
        <line style="stroke: #A80036; stroke-width: 1.5;" x1="526" x2="594" y1="300" y2="300"/>
        <rect fill="#FEFECE" filter="url(#f1)" height="48" style="stroke: #A80036; stroke-width: 1.5;" width="115" x="1028.5" y="152"/>
        <ellipse cx="1043.5" cy="168" fill="#ADD1B2" rx="11" ry="11" style="stroke: #A80036; stroke-width: 1.0;"/>
        <path d="M1046.2656,163.875 Q1046.4219,163.6563 1046.6094,163.5469 Q1046.7969,163.4375 1047.0156,163.4375 Q1047.3906,163.4375 1047.625,163.6953 Q1047.8594,163.9531 1047.8594,164.5625 L1047.8594,166.0156 Q1047.8594,166.625 1047.625,166.8906 Q1047.3906,167.1563 1047.0156,167.1563 Q1046.6719,167.1563 1046.4688,166.9531 Q1046.2656,166.7656 1046.1563,166.25 Q1046.1094,165.8906 1045.9219,165.7031 Q1045.5938,165.3281 1044.9844,165.1094 Q1044.375,164.8906 1043.75,164.8906 Q1042.9844,164.8906 1042.3516,165.2188 Q1041.7188,165.5469 1041.2266,166.2969 Q1040.7344,167.0469 1040.7344,168.0781 L1040.7344,169.1719 Q1040.7344,170.4063 1041.625,171.2266 Q1042.5156,172.0469 1044.1094,172.0469 Q1045.0469,172.0469 1045.7031,171.7969 Q1046.0938,171.6406 1046.5156,171.2031 Q1046.7813,170.9375 1046.9297,170.8594 Q1047.0781,170.7813 1047.2813,170.7813 Q1047.6094,170.7813 1047.8672,171.0391 Q1048.125,171.2969 1048.125,171.6406 Q1048.125,171.9844 1047.7813,172.3906 Q1047.2813,172.9688 1046.4844,173.2969 Q1045.4063,173.75 1044.1094,173.75 Q1042.5938,173.75 1041.3906,173.125 Q1040.4063,172.625 1039.7188,171.5547 Q1039.0313,170.4844 1039.0313,169.2031 L1039.0313,168.0469 Q1039.0313,166.7188 1039.6484,165.5703 Q1040.2656,164.4219 1041.3594,163.8047 Q1042.4531,163.1875 1043.6875,163.1875 Q1044.4219,163.1875 1045.0703,163.3516 Q1045.7188,163.5156 1046.2656,163.875 Z "/>
        <text fill="#000000" font-family="sans-serif" font-size="12" lengthAdjust="spacingAndGlyphs" textLength="83" x="1057.5" y="172.9102">ConnectPacket</text>
        <line style="stroke: #A80036; stroke-width: 1.5;" x1="1029.5" x2="1142.5" y1="184" y2="184"/>
        <line style="stroke: #A80036; stroke-width: 1.5;" x1="1029.5" x2="1142.5" y1="192" y2="192"/>
        <rect fill="#FEFECE" filter="url(#f1)" height="48" style="stroke: #A80036; stroke-width: 1.5;" width="131" x="862.5" y="152"/>
        <ellipse cx="877.5" cy="168" fill="#ADD1B2" rx="11" ry="11" style="stroke: #A80036; stroke-width: 1.0;"/>
        <path d="M880.2656,163.875 Q880.4219,163.6563 880.6094,163.5469 Q880.7969,163.4375 881.0156,163.4375 Q881.3906,163.4375 881.625,163.6953 Q881.8594,163.9531 881.8594,164.5625 L881.8594,166.0156 Q881.8594,166.625 881.625,166.8906 Q881.3906,167.1563 881.0156,167.1563 Q880.6719,167.1563 880.4688,166.9531 Q880.2656,166.7656 880.1563,166.25 Q880.1094,165.8906 879.9219,165.7031 Q879.5938,165.3281 878.9844,165.1094 Q878.375,164.8906 877.75,164.8906 Q876.9844,164.8906 876.3516,165.2188 Q875.7188,165.5469 875.2266,166.2969 Q874.7344,167.0469 874.7344,168.0781 L874.7344,169.1719 Q874.7344,170.4063 875.625,171.2266 Q876.5156,172.0469 878.1094,172.0469 Q879.0469,172.0469 879.7031,171.7969 Q880.0938,171.6406 880.5156,171.2031 Q880.7813,170.9375 880.9297,170.8594 Q881.0781,170.7813 881.2813,170.7813 Q881.6094,170.7813 881.8672,171.0391 Q882.125,171.2969 882.125,171.6406 Q882.125,171.9844 881.7813,172.3906 Q881.2813,172.9688 880.4844,173.2969 Q879.4063,173.75 878.1094,173.75 Q876.5938,173.75 875.3906,173.125 Q874.4063,172.625 873.7188,171.5547 Q873.0313,170.4844 873.0313,169.2031 L873.0313,168.0469 Q873.0313,166.7188 873.6484,165.5703 Q874.2656,164.4219 875.3594,163.8047 Q876.4531,163.1875 877.6875,163.1875 Q878.4219,163.1875 879.0703,163.3516 Q879.7188,163.5156 880.2656,163.875 Z "/>
        <text fill="#000000" font-family="sans-serif" font-size="12" lengthAdjust="spacingAndGlyphs" textLength="99" x="891.5" y="172.9102">DisconnectPacket</text>
        <line style="stroke: #A80036; stroke-width: 1.5;" x1="863.5" x2="992.5" y1="184" y2="184"/>
        <line style="stroke: #A80036; stroke-width: 1.5;" x1="863.5" x2="992.5" y1="192" y2="192"/>
        <rect fill="#FEFECE" filter="url(#f1)" height="48" style="stroke: #A80036; stroke-width: 1.5;" width="154" x="920" y="44"/>
        <ellipse cx="935" cy="60" fill="#ADD1B2" rx="11" ry="11" style="stroke: #A80036; stroke-width: 1.0;"/>
        <path d="M937.7656,55.875 Q937.9219,55.6563 938.1094,55.5469 Q938.2969,55.4375 938.5156,55.4375 Q938.8906,55.4375 939.125,55.6953 Q939.3594,55.9531 939.3594,56.5625 L939.3594,58.0156 Q939.3594,58.625 939.125,58.8906 Q938.8906,59.1563 938.5156,59.1563 Q938.1719,59.1563 937.9688,58.9531 Q937.7656,58.7656 937.6563,58.25 Q937.6094,57.8906 937.4219,57.7031 Q937.0938,57.3281 936.4844,57.1094 Q935.875,56.8906 935.25,56.8906 Q934.4844,56.8906 933.8516,57.2188 Q933.2188,57.5469 932.7266,58.2969 Q932.2344,59.0469 932.2344,60.0781 L932.2344,61.1719 Q932.2344,62.4063 933.125,63.2266 Q934.0156,64.0469 935.6094,64.0469 Q936.5469,64.0469 937.2031,63.7969 Q937.5938,63.6406 938.0156,63.2031 Q938.2813,62.9375 938.4297,62.8594 Q938.5781,62.7813 938.7813,62.7813 Q939.1094,62.7813 939.3672,63.0391 Q939.625,63.2969 939.625,63.6406 Q939.625,63.9844 939.2813,64.3906 Q938.7813,64.9688 937.9844,65.2969 Q936.9063,65.75 935.6094,65.75 Q934.0938,65.75 932.8906,65.125 Q931.9063,64.625 931.2188,63.5547 Q930.5313,62.4844 930.5313,61.2031 L930.5313,60.0469 Q930.5313,58.7188 931.1484,57.5703 Q931.7656,56.4219 932.8594,55.8047 Q933.9531,55.1875 935.1875,55.1875 Q935.9219,55.1875 936.5703,55.3516 Q937.2188,55.5156 937.7656,55.875 Z "/>
        <text fill="#000000" font-family="sans-serif" font-size="12" lengthAdjust="spacingAndGlyphs" textLength="122" x="949" y="64.9102">GroupMessagePacket</text>
        <line style="stroke: #A80036; stroke-width: 1.5;" x1="921" x2="1073" y1="76" y2="76"/>
        <line style="stroke: #A80036; stroke-width: 1.5;" x1="921" x2="1073" y1="84" y2="84"/>
        <rect fill="#FEFECE" filter="url(#f1)" height="48" style="stroke: #A80036; stroke-width: 1.5;" width="89" x="795.5" y="44"/>
        <ellipse cx="810.5" cy="60" fill="#ADD1B2" rx="11" ry="11" style="stroke: #A80036; stroke-width: 1.0;"/>
        <path d="M813.2656,55.875 Q813.4219,55.6563 813.6094,55.5469 Q813.7969,55.4375 814.0156,55.4375 Q814.3906,55.4375 814.625,55.6953 Q814.8594,55.9531 814.8594,56.5625 L814.8594,58.0156 Q814.8594,58.625 814.625,58.8906 Q814.3906,59.1563 814.0156,59.1563 Q813.6719,59.1563 813.4688,58.9531 Q813.2656,58.7656 813.1563,58.25 Q813.1094,57.8906 812.9219,57.7031 Q812.5938,57.3281 811.9844,57.1094 Q811.375,56.8906 810.75,56.8906 Q809.9844,56.8906 809.3516,57.2188 Q808.7188,57.5469 808.2266,58.2969 Q807.7344,59.0469 807.7344,60.0781 L807.7344,61.1719 Q807.7344,62.4063 808.625,63.2266 Q809.5156,64.0469 811.1094,64.0469 Q812.0469,64.0469 812.7031,63.7969 Q813.0938,63.6406 813.5156,63.2031 Q813.7813,62.9375 813.9297,62.8594 Q814.0781,62.7813 814.2813,62.7813 Q814.6094,62.7813 814.8672,63.0391 Q815.125,63.2969 815.125,63.6406 Q815.125,63.9844 814.7813,64.3906 Q814.2813,64.9688 813.4844,65.2969 Q812.4063,65.75 811.1094,65.75 Q809.5938,65.75 808.3906,65.125 Q807.4063,64.625 806.7188,63.5547 Q806.0313,62.4844 806.0313,61.2031 L806.0313,60.0469 Q806.0313,58.7188 806.6484,57.5703 Q807.2656,56.4219 808.3594,55.8047 Q809.4531,55.1875 810.6875,55.1875 Q811.4219,55.1875 812.0703,55.3516 Q812.7188,55.5156 813.2656,55.875 Z "/>
        <text fill="#000000" font-family="sans-serif" font-size="12" lengthAdjust="spacingAndGlyphs" textLength="57" x="824.5" y="64.9102">InfoPacket</text>
        <line style="stroke: #A80036; stroke-width: 1.5;" x1="796.5" x2="883.5" y1="76" y2="76"/>
        <line style="stroke: #A80036; stroke-width: 1.5;" x1="796.5" x2="883.5" y1="84" y2="84"/>
        <rect fill="#FEFECE" filter="url(#f1)" height="48" style="stroke: #A80036; stroke-width: 1.5;" width="104" x="442" y="152"/>
        <ellipse cx="457" cy="168" fill="#ADD1B2" rx="11" ry="11" style="stroke: #A80036; stroke-width: 1.0;"/>
        <path d="M459.7656,163.875 Q459.9219,163.6563 460.1094,163.5469 Q460.2969,163.4375 460.5156,163.4375 Q460.8906,163.4375 461.125,163.6953 Q461.3594,163.9531 461.3594,164.5625 L461.3594,166.0156 Q461.3594,166.625 461.125,166.8906 Q460.8906,167.1563 460.5156,167.1563 Q460.1719,167.1563 459.9688,166.9531 Q459.7656,166.7656 459.6563,166.25 Q459.6094,165.8906 459.4219,165.7031 Q459.0938,165.3281 458.4844,165.1094 Q457.875,164.8906 457.25,164.8906 Q456.4844,164.8906 455.8516,165.2188 Q455.2188,165.5469 454.7266,166.2969 Q454.2344,167.0469 454.2344,168.0781 L454.2344,169.1719 Q454.2344,170.4063 455.125,171.2266 Q456.0156,172.0469 457.6094,172.0469 Q458.5469,172.0469 459.2031,171.7969 Q459.5938,171.6406 460.0156,171.2031 Q460.2813,170.9375 460.4297,170.8594 Q460.5781,170.7813 460.7813,170.7813 Q461.1094,170.7813 461.3672,171.0391 Q461.625,171.2969 461.625,171.6406 Q461.625,171.9844 461.2813,172.3906 Q460.7813,172.9688 459.9844,173.2969 Q458.9063,173.75 457.6094,173.75 Q456.0938,173.75 454.8906,173.125 Q453.9063,172.625 453.2188,171.5547 Q452.5313,170.4844 452.5313,169.2031 L452.5313,168.0469 Q452.5313,166.7188 453.1484,165.5703 Q453.7656,164.4219 454.8594,163.8047 Q455.9531,163.1875 457.1875,163.1875 Q457.9219,163.1875 458.5703,163.3516 Q459.2188,163.5156 459.7656,163.875 Z "/>
        <text fill="#000000" font-family="sans-serif" font-size="12" lengthAdjust="spacingAndGlyphs" textLength="72" x="471" y="172.9102">InvalidPacket</text>
        <line style="stroke: #A80036; stroke-width: 1.5;" x1="443" x2="545" y1="184" y2="184"/>
        <line style="stroke: #A80036; stroke-width: 1.5;" x1="443" x2="545" y1="192" y2="192"/>
        <rect fill="#FEFECE" filter="url(#f1)" height="48" style="stroke: #A80036; stroke-width: 1.5;" width="92" x="581" y="152"/>
        <ellipse cx="596" cy="168" fill="#ADD1B2" rx="11" ry="11" style="stroke: #A80036; stroke-width: 1.0;"/>
        <path d="M598.7656,163.875 Q598.9219,163.6563 599.1094,163.5469 Q599.2969,163.4375 599.5156,163.4375 Q599.8906,163.4375 600.125,163.6953 Q600.3594,163.9531 600.3594,164.5625 L600.3594,166.0156 Q600.3594,166.625 600.125,166.8906 Q599.8906,167.1563 599.5156,167.1563 Q599.1719,167.1563 598.9688,166.9531 Q598.7656,166.7656 598.6563,166.25 Q598.6094,165.8906 598.4219,165.7031 Q598.0938,165.3281 597.4844,165.1094 Q596.875,164.8906 596.25,164.8906 Q595.4844,164.8906 594.8516,165.2188 Q594.2188,165.5469 593.7266,166.2969 Q593.2344,167.0469 593.2344,168.0781 L593.2344,169.1719 Q593.2344,170.4063 594.125,171.2266 Q595.0156,172.0469 596.6094,172.0469 Q597.5469,172.0469 598.2031,171.7969 Q598.5938,171.6406 599.0156,171.2031 Q599.2813,170.9375 599.4297,170.8594 Q599.5781,170.7813 599.7813,170.7813 Q600.1094,170.7813 600.3672,171.0391 Q600.625,171.2969 600.625,171.6406 Q600.625,171.9844 600.2813,172.3906 Q599.7813,172.9688 598.9844,173.2969 Q597.9063,173.75 596.6094,173.75 Q595.0938,173.75 593.8906,173.125 Q592.9063,172.625 592.2188,171.5547 Q591.5313,170.4844 591.5313,169.2031 L591.5313,168.0469 Q591.5313,166.7188 592.1484,165.5703 Q592.7656,164.4219 593.8594,163.8047 Q594.9531,163.1875 596.1875,163.1875 Q596.9219,163.1875 597.5703,163.3516 Q598.2188,163.5156 598.7656,163.875 Z "/>
        <text fill="#000000" font-family="sans-serif" font-size="12" lengthAdjust="spacingAndGlyphs" textLength="60" x="610" y="172.9102">KickPacket</text>
        <line style="stroke: #A80036; stroke-width: 1.5;" x1="582" x2="672" y1="184" y2="184"/>
        <line style="stroke: #A80036; stroke-width: 1.5;" x1="582" x2="672" y1="192" y2="192"/>
        <rect fill="#FEFECE" filter="url(#f1)" height="48" style="stroke: #A80036; stroke-width: 1.5;" width="157" x="603.5" y="44"/>
        <ellipse cx="618.5" cy="60" fill="#ADD1B2" rx="11" ry="11" style="stroke: #A80036; stroke-width: 1.0;"/>
        <path d="M621.2656,55.875 Q621.4219,55.6563 621.6094,55.5469 Q621.7969,55.4375 622.0156,55.4375 Q622.3906,55.4375 622.625,55.6953 Q622.8594,55.9531 622.8594,56.5625 L622.8594,58.0156 Q622.8594,58.625 622.625,58.8906 Q622.3906,59.1563 622.0156,59.1563 Q621.6719,59.1563 621.4688,58.9531 Q621.2656,58.7656 621.1563,58.25 Q621.1094,57.8906 620.9219,57.7031 Q620.5938,57.3281 619.9844,57.1094 Q619.375,56.8906 618.75,56.8906 Q617.9844,56.8906 617.3516,57.2188 Q616.7188,57.5469 616.2266,58.2969 Q615.7344,59.0469 615.7344,60.0781 L615.7344,61.1719 Q615.7344,62.4063 616.625,63.2266 Q617.5156,64.0469 619.1094,64.0469 Q620.0469,64.0469 620.7031,63.7969 Q621.0938,63.6406 621.5156,63.2031 Q621.7813,62.9375 621.9297,62.8594 Q622.0781,62.7813 622.2813,62.7813 Q622.6094,62.7813 622.8672,63.0391 Q623.125,63.2969 623.125,63.6406 Q623.125,63.9844 622.7813,64.3906 Q622.2813,64.9688 621.4844,65.2969 Q620.4063,65.75 619.1094,65.75 Q617.5938,65.75 616.3906,65.125 Q615.4063,64.625 614.7188,63.5547 Q614.0313,62.4844 614.0313,61.2031 L614.0313,60.0469 Q614.0313,58.7188 614.6484,57.5703 Q615.2656,56.4219 616.3594,55.8047 Q617.4531,55.1875 618.6875,55.1875 Q619.4219,55.1875 620.0703,55.3516 Q620.7188,55.5156 621.2656,55.875 Z "/>
        <text fill="#000000" font-family="sans-serif" font-size="12" lengthAdjust="spacingAndGlyphs" textLength="125" x="632.5" y="64.9102">PrivateMessagePacket</text>
        <line style="stroke: #A80036; stroke-width: 1.5;" x1="604.5" x2="759.5" y1="76" y2="76"/>
        <line style="stroke: #A80036; stroke-width: 1.5;" x1="604.5" x2="759.5" y1="84" y2="84"/>
        <rect fill="#FEFECE" filter="url(#f1)" height="48" style="stroke: #A80036; stroke-width: 1.5;" width="116" x="291" y="152"/>
        <ellipse cx="306" cy="168" fill="#ADD1B2" rx="11" ry="11" style="stroke: #A80036; stroke-width: 1.0;"/>
        <path d="M308.7656,163.875 Q308.9219,163.6563 309.1094,163.5469 Q309.2969,163.4375 309.5156,163.4375 Q309.8906,163.4375 310.125,163.6953 Q310.3594,163.9531 310.3594,164.5625 L310.3594,166.0156 Q310.3594,166.625 310.125,166.8906 Q309.8906,167.1563 309.5156,167.1563 Q309.1719,167.1563 308.9688,166.9531 Q308.7656,166.7656 308.6563,166.25 Q308.6094,165.8906 308.4219,165.7031 Q308.0938,165.3281 307.4844,165.1094 Q306.875,164.8906 306.25,164.8906 Q305.4844,164.8906 304.8516,165.2188 Q304.2188,165.5469 303.7266,166.2969 Q303.2344,167.0469 303.2344,168.0781 L303.2344,169.1719 Q303.2344,170.4063 304.125,171.2266 Q305.0156,172.0469 306.6094,172.0469 Q307.5469,172.0469 308.2031,171.7969 Q308.5938,171.6406 309.0156,171.2031 Q309.2813,170.9375 309.4297,170.8594 Q309.5781,170.7813 309.7813,170.7813 Q310.1094,170.7813 310.3672,171.0391 Q310.625,171.2969 310.625,171.6406 Q310.625,171.9844 310.2813,172.3906 Q309.7813,172.9688 308.9844,173.2969 Q307.9063,173.75 306.6094,173.75 Q305.0938,173.75 303.8906,173.125 Q302.9063,172.625 302.2188,171.5547 Q301.5313,170.4844 301.5313,169.2031 L301.5313,168.0469 Q301.5313,166.7188 302.1484,165.5703 Q302.7656,164.4219 303.8594,163.8047 Q304.9531,163.1875 306.1875,163.1875 Q306.9219,163.1875 307.5703,163.3516 Q308.2188,163.5156 308.7656,163.875 Z "/>
        <text fill="#000000" font-family="sans-serif" font-size="12" lengthAdjust="spacingAndGlyphs" textLength="84" x="320" y="172.9102">UserListPacket</text>
        <line style="stroke: #A80036; stroke-width: 1.5;" x1="292" x2="406" y1="184" y2="184"/>
        <line style="stroke: #A80036; stroke-width: 1.5;" x1="292" x2="406" y1="192" y2="192"/>
        <rect fill="#FEFECE" filter="url(#f1)" height="48" style="stroke: #A80036; stroke-width: 1.5;" width="95" x="473.5" y="44"/>
        <ellipse cx="488.5" cy="60" fill="#EB937F" rx="11" ry="11" style="stroke: #A80036; stroke-width: 1.0;"/>
        <path d="M487.3594,60.7969 L487.3594,63.2969 L491.6875,63.2969 L491.6875,62.375 Q491.6875,61.7656 491.9297,61.5 Q492.1719,61.2344 492.5469,61.2344 Q492.9219,61.2344 493.1563,61.5 Q493.3906,61.7656 493.3906,62.375 L493.3906,65 L485.3906,65 Q484.7656,65 484.5078,64.7656 Q484.25,64.5313 484.25,64.1406 Q484.25,63.7656 484.5156,63.5313 Q484.7813,63.2969 485.3906,63.2969 L485.6563,63.2969 L485.6563,56.6406 L485.3906,56.6406 Q484.7656,56.6406 484.5078,56.4063 Q484.25,56.1719 484.25,55.7813 Q484.25,55.4063 484.5078,55.1719 Q484.7656,54.9375 485.3906,54.9375 L493.0156,54.9375 L493.0156,57.5313 Q493.0156,58.1406 492.7891,58.3984 Q492.5625,58.6563 492.1719,58.6563 Q491.7969,58.6563 491.5625,58.3984 Q491.3281,58.1406 491.3281,57.5313 L491.3281,56.6406 L487.3594,56.6406 L487.3594,59.0938 L488.8438,59.0938 Q488.8438,58.4375 488.9688,58.25 Q489.2344,57.8438 489.7031,57.8438 Q490.0781,57.8438 490.3125,58.1016 Q490.5469,58.3594 490.5469,58.9688 L490.5469,60.9375 Q490.5469,61.4844 490.4219,61.6719 Q490.1563,62.0625 489.7031,62.0625 Q489.2344,62.0625 488.9688,61.6563 Q488.8438,61.4688 488.8438,60.7969 L487.3594,60.7969 Z "/>
        <text fill="#000000" font-family="sans-serif" font-size="12" lengthAdjust="spacingAndGlyphs" textLength="63" x="502.5" y="64.9102">PacketType</text>
        <line style="stroke: #A80036; stroke-width: 1.5;" x1="474.5" x2="567.5" y1="76" y2="76"/>
        <line style="stroke: #A80036; stroke-width: 1.5;" x1="474.5" x2="567.5" y1="84" y2="84"/>
        <rect fill="#FEFECE" filter="url(#f1)" height="48" style="stroke: #A80036; stroke-width: 1.5;" width="142" x="296" y="44"/>
        <ellipse cx="311" cy="60" fill="#EB937F" rx="11" ry="11" style="stroke: #A80036; stroke-width: 1.0;"/>
        <path d="M309.8594,60.7969 L309.8594,63.2969 L314.1875,63.2969 L314.1875,62.375 Q314.1875,61.7656 314.4297,61.5 Q314.6719,61.2344 315.0469,61.2344 Q315.4219,61.2344 315.6563,61.5 Q315.8906,61.7656 315.8906,62.375 L315.8906,65 L307.8906,65 Q307.2656,65 307.0078,64.7656 Q306.75,64.5313 306.75,64.1406 Q306.75,63.7656 307.0156,63.5313 Q307.2813,63.2969 307.8906,63.2969 L308.1563,63.2969 L308.1563,56.6406 L307.8906,56.6406 Q307.2656,56.6406 307.0078,56.4063 Q306.75,56.1719 306.75,55.7813 Q306.75,55.4063 307.0078,55.1719 Q307.2656,54.9375 307.8906,54.9375 L315.5156,54.9375 L315.5156,57.5313 Q315.5156,58.1406 315.2891,58.3984 Q315.0625,58.6563 314.6719,58.6563 Q314.2969,58.6563 314.0625,58.3984 Q313.8281,58.1406 313.8281,57.5313 L313.8281,56.6406 L309.8594,56.6406 L309.8594,59.0938 L311.3438,59.0938 Q311.3438,58.4375 311.4688,58.25 Q311.7344,57.8438 312.2031,57.8438 Q312.5781,57.8438 312.8125,58.1016 Q313.0469,58.3594 313.0469,58.9688 L313.0469,60.9375 Q313.0469,61.4844 312.9219,61.6719 Q312.6563,62.0625 312.2031,62.0625 Q311.7344,62.0625 311.4688,61.6563 Q311.3438,61.4688 311.3438,60.7969 L309.8594,60.7969 Z "/>
        <text fill="#000000" font-family="sans-serif" font-size="12" lengthAdjust="spacingAndGlyphs" textLength="110" x="325" y="64.9102">UserListPacketType</text>
        <line style="stroke: #A80036; stroke-width: 1.5;" x1="297" x2="437" y1="76" y2="76"/>
        <line style="stroke: #A80036; stroke-width: 1.5;" x1="297" x2="437" y1="84" y2="84"/>
        <rect fill="#FEFECE" filter="url(#f1)" height="48" style="stroke: #A80036; stroke-width: 1.5;" width="56" x="205" y="44"/>
        <ellipse cx="220" cy="60" fill="#ADD1B2" rx="11" ry="11" style="stroke: #A80036; stroke-width: 1.0;"/>
        <path d="M222.7656,55.875 Q222.9219,55.6563 223.1094,55.5469 Q223.2969,55.4375 223.5156,55.4375 Q223.8906,55.4375 224.125,55.6953 Q224.3594,55.9531 224.3594,56.5625 L224.3594,58.0156 Q224.3594,58.625 224.125,58.8906 Q223.8906,59.1563 223.5156,59.1563 Q223.1719,59.1563 222.9688,58.9531 Q222.7656,58.7656 222.6563,58.25 Q222.6094,57.8906 222.4219,57.7031 Q222.0938,57.3281 221.4844,57.1094 Q220.875,56.8906 220.25,56.8906 Q219.4844,56.8906 218.8516,57.2188 Q218.2188,57.5469 217.7266,58.2969 Q217.2344,59.0469 217.2344,60.0781 L217.2344,61.1719 Q217.2344,62.4063 218.125,63.2266 Q219.0156,64.0469 220.6094,64.0469 Q221.5469,64.0469 222.2031,63.7969 Q222.5938,63.6406 223.0156,63.2031 Q223.2813,62.9375 223.4297,62.8594 Q223.5781,62.7813 223.7813,62.7813 Q224.1094,62.7813 224.3672,63.0391 Q224.625,63.2969 224.625,63.6406 Q224.625,63.9844 224.2813,64.3906 Q223.7813,64.9688 222.9844,65.2969 Q221.9063,65.75 220.6094,65.75 Q219.0938,65.75 217.8906,65.125 Q216.9063,64.625 216.2188,63.5547 Q215.5313,62.4844 215.5313,61.2031 L215.5313,60.0469 Q215.5313,58.7188 216.1484,57.5703 Q216.7656,56.4219 217.8594,55.8047 Q218.9531,55.1875 220.1875,55.1875 Q220.9219,55.1875 221.5703,55.3516 Q222.2188,55.5156 222.7656,55.875 Z "/>
        <text fill="#000000" font-family="sans-serif" font-size="12" lengthAdjust="spacingAndGlyphs" textLength="24" x="234" y="64.9102">TCP</text>
        <line style="stroke: #A80036; stroke-width: 1.5;" x1="206" x2="260" y1="76" y2="76"/>
        <line style="stroke: #A80036; stroke-width: 1.5;" x1="206" x2="260" y1="84" y2="84"/>
        <rect fill="#FEFECE" filter="url(#f1)" height="48" style="stroke: #A80036; stroke-width: 1.5;" width="148" x="22" y="44"/>
        <ellipse cx="37" cy="60" fill="#EB937F" rx="11" ry="11" style="stroke: #A80036; stroke-width: 1.0;"/>
        <path d="M35.8594,60.7969 L35.8594,63.2969 L40.1875,63.2969 L40.1875,62.375 Q40.1875,61.7656 40.4297,61.5 Q40.6719,61.2344 41.0469,61.2344 Q41.4219,61.2344 41.6563,61.5 Q41.8906,61.7656 41.8906,62.375 L41.8906,65 L33.8906,65 Q33.2656,65 33.0078,64.7656 Q32.75,64.5313 32.75,64.1406 Q32.75,63.7656 33.0156,63.5313 Q33.2813,63.2969 33.8906,63.2969 L34.1563,63.2969 L34.1563,56.6406 L33.8906,56.6406 Q33.2656,56.6406 33.0078,56.4063 Q32.75,56.1719 32.75,55.7813 Q32.75,55.4063 33.0078,55.1719 Q33.2656,54.9375 33.8906,54.9375 L41.5156,54.9375 L41.5156,57.5313 Q41.5156,58.1406 41.2891,58.3984 Q41.0625,58.6563 40.6719,58.6563 Q40.2969,58.6563 40.0625,58.3984 Q39.8281,58.1406 39.8281,57.5313 L39.8281,56.6406 L35.8594,56.6406 L35.8594,59.0938 L37.3438,59.0938 Q37.3438,58.4375 37.4688,58.25 Q37.7344,57.8438 38.2031,57.8438 Q38.5781,57.8438 38.8125,58.1016 Q39.0469,58.3594 39.0469,58.9688 L39.0469,60.9375 Q39.0469,61.4844 38.9219,61.6719 Q38.6563,62.0625 38.2031,62.0625 Q37.7344,62.0625 37.4688,61.6563 Q37.3438,61.4688 37.3438,60.7969 L35.8594,60.7969 Z "/>
        <text fill="#000000" font-family="sans-serif" font-size="12" lengthAdjust="spacingAndGlyphs" textLength="116" x="51" y="64.9102">NetworkProtocolType</text>
        <line style="stroke: #A80036; stroke-width: 1.5;" x1="23" x2="169" y1="76" y2="76"/>
        <line style="stroke: #A80036; stroke-width: 1.5;" x1="23" x2="169" y1="84" y2="84"/>
        <rect fill="#FEFECE" filter="url(#f1)" height="48" style="stroke: #A80036; stroke-width: 1.5;" width="122" x="63" y="152"/>
        <ellipse cx="78" cy="168" fill="#B4A7E5" rx="11" ry="11" style="stroke: #A80036; stroke-width: 1.0;"/>
        <path d="M78.9531,164.6406 L78.9531,171.2969 L80.6719,171.2969 Q81.2813,171.2969 81.5469,171.5313 Q81.8125,171.7656 81.8125,172.1563 Q81.8125,172.5313 81.5469,172.7656 Q81.2813,173 80.6719,173 L75.5313,173 Q74.9219,173 74.6563,172.7656 Q74.3906,172.5313 74.3906,172.1406 Q74.3906,171.7656 74.6563,171.5313 Q74.9219,171.2969 75.5313,171.2969 L77.25,171.2969 L77.25,164.6406 L75.5313,164.6406 Q74.9219,164.6406 74.6563,164.4063 Q74.3906,164.1719 74.3906,163.7813 Q74.3906,163.4063 74.6563,163.1719 Q74.9219,162.9375 75.5313,162.9375 L80.6719,162.9375 Q81.2813,162.9375 81.5469,163.1719 Q81.8125,163.4063 81.8125,163.7813 Q81.8125,164.1719 81.5469,164.4063 Q81.2813,164.6406 80.6719,164.6406 L78.9531,164.6406 Z "/>
        <text fill="#000000" font-family="sans-serif" font-size="12" font-style="italic" lengthAdjust="spacingAndGlyphs" textLength="90" x="92" y="172.9102">NetworkProtocol</text>
        <line style="stroke: #A80036; stroke-width: 1.5;" x1="64" x2="184" y1="184" y2="184"/>
        <line style="stroke: #A80036; stroke-width: 1.5;" x1="64" x2="184" y1="192" y2="192"/>
        <path d="M722.867,200 C690.656,216.416 647.212,238.5556 613.294,255.8406 " fill="none" style="stroke: #A80036; stroke-width: 1.0;"/>
        <polygon fill="none" points="616.071,262.2819,595.073,265.1262,609.714,249.8083,616.071,262.2819" style="stroke: #A80036; stroke-width: 1.0;"/>
        <path d="M233.01,92.196 C234.323,123.01 241.367,177.135 273,208 C307.982,242.1319 448.858,266.8797 519.373,277.3959 " fill="none" style="stroke: #A80036; stroke-width: 1.0; stroke-dasharray: 7.0,7.0;"/>
        <polygon fill="#A80036" points="524.738,278.1887,516.42,272.9152,519.7918,277.4573,515.2497,280.8291,524.738,278.1887" style="stroke: #A80036; stroke-width: 1.0;"/>
        <path d="M261.193,85.132 C265.755,87.541 270.469,89.913 275,92 C328.805,116.783 392.298,140.24 437.027,155.853 " fill="none" style="stroke: #A80036; stroke-width: 1.0; stroke-dasharray: 7.0,7.0;"/>
        <polygon fill="#A80036" points="441.84,157.528,434.6556,150.7912,437.118,155.884,432.0252,158.3464,441.84,157.528" style="stroke: #A80036; stroke-width: 1.0;"/>
        <path d="M209.349,92 C195.73,105.244 178.28,122.214 162.712,137.354 " fill="none" style="stroke: #A80036; stroke-width: 1.0;"/>
        <polygon fill="none" points="167.2,142.753,147.982,151.678,157.44,132.717,167.2,142.753" style="stroke: #A80036; stroke-width: 1.0;"/>
        <path d="M1034.5,200.073 C1026.72,203.032 1018.72,205.793 1011,208 C871.343,247.9123 700.901,269.0868 615.044,277.918 " fill="none" style="stroke: #A80036; stroke-width: 1.0;"/>
        <polygon fill="none" points="615.704,284.8869,595.109,279.9012,614.318,270.9556,615.704,284.8869" style="stroke: #A80036; stroke-width: 1.0;"/>
        <path d="M868.406,200.072 C860.575,202.864 852.624,205.58 845,208 C765.954,233.093 672.748,256.478 615.004,270.2577 " fill="none" style="stroke: #A80036; stroke-width: 1.0;"/>
        <polygon fill="none" points="616.5,277.0968,595.426,274.8852,613.28,263.4723,616.5,277.0968" style="stroke: #A80036; stroke-width: 1.0;"/>
        <path d="M947.31,92 C914.863,107.02 872.061,126.832 836.413,143.333 " fill="none" style="stroke: #A80036; stroke-width: 1.0;"/>
        <polygon fill="none" points="839.078,149.813,817.988,151.862,833.197,137.108,839.078,149.813" style="stroke: #A80036; stroke-width: 1.0;"/>
        <path d="M824.377,92 C815.85,104.554 805.049,120.456 795.187,134.974 " fill="none" style="stroke: #A80036; stroke-width: 1.0;"/>
        <polygon fill="none" points="800.869,139.067,783.841,151.678,789.288,131.201,800.869,139.067" style="stroke: #A80036; stroke-width: 1.0;"/>
        <path d="M508.321,200 C516.052,212.416 525.821,228.107 534.78,242.4949 " fill="none" style="stroke: #A80036; stroke-width: 1.0;"/>
        <polygon fill="none" points="540.85,239.0005,545.479,259.6784,528.966,246.4004,540.85,239.0005" style="stroke: #A80036; stroke-width: 1.0;"/>
        <path d="M612.462,200 C604.614,212.416 594.697,228.107 585.602,242.4949 " fill="none" style="stroke: #A80036; stroke-width: 1.0;"/>
        <polygon fill="none" points="591.344,246.5125,574.741,259.6784,579.51,239.0323,591.344,246.5125" style="stroke: #A80036; stroke-width: 1.0;"/>
        <path d="M700.661,92 C711.07,104.83 724.316,121.157 736.301,135.929 " fill="none" style="stroke: #A80036; stroke-width: 1.0;"/>
        <polygon fill="none" points="741.914,131.737,749.079,151.678,731.042,140.557,741.914,131.737" style="stroke: #A80036; stroke-width: 1.0;"/>
        <path d="M394.784,200 C427.714,216.543 472.217,238.9005 506.739,256.2432 " fill="none" style="stroke: #A80036; stroke-width: 1.0;"/>
        <polygon fill="none" points="510.025,250.0602,524.754,265.2934,503.74,262.5703,510.025,250.0602" style="stroke: #A80036; stroke-width: 1.0;"/>
        <path d="M185.226,199.681 C194.15,202.661 203.271,205.533 212,208 C321.986,239.0898 454.669,264.4003 519.862,276.0571 " fill="none" style="stroke: #A80036; stroke-width: 1.0; stroke-dasharray: 7.0,7.0;"/>
        <polygon fill="#A80036" points="524.818,276.9402,516.6593,271.4234,519.8955,276.0631,515.2559,279.2993,524.818,276.9402" style="stroke: #A80036; stroke-width: 1.0;"/>
    </g>
</svg>
